<svg xmlns="http://www.w3.org/2000/svg" viewBox="0 0 1000 500.5"><defs><style>.cls-1{fill:#f7b805;}.cls-2{font-size:25px;font-family:LinuxLibertineG, Linux Libertine G;}.cls-2,.cls-4{fill:#f9ba0c;}.cls-3{letter-spacing:0.01em;}.cls-4{font-size:170px;font-family:TimesNewRomanPSMT, Times New Roman;}</style></defs><g id="Base"><g id="Jaune"><polygon class="cls-1" points="676 238 676 0.5 651 0.5 651 238 0 238 0 263 651 263 651 500.5 676 500.5 676 263 1000 263 1000 238 676 238"/><path class="cls-1" d="M950,422A116,116,0,1,0,834,306,116,116,0,0,0,950,422Zm.5-217A100.5,100.5,0,1,1,850,305.5,100.51,100.51,0,0,1,950.5,205Z" transform="translate(-149 -190)"/></g></g><g id="Devise_-_Métis" data-name="Devise - Métis"><text id="Devise-Jaune" class="cls-2" transform="translate(245 255.88)">Com<tspan class="cls-3" x="48.49" y="0">p</tspan><tspan x="61.62" y="0">os mentis</tspan></text></g><g id="Karen"><text id="KAREN_-jaune" data-name="KAREN -jaune" class="cls-4" transform="translate(36.65 412.74)">KAREN</text></g></svg>